<svg width="183" height="44" viewBox="0 0 183 44" fill="none" xmlns="http://www.w3.org/2000/svg">
<path d="M46.6495 9.14787C47.3951 9.92637 47.3676 11.1621 46.5881 11.9067L18.8373 38.4153C18.0714 39.1469 16.8617 39.1334 16.1124 38.385L1.38154 23.6729C0.618825 22.9112 0.618847 21.6751 1.38158 20.9134L5.31045 16.9898C6.07176 16.2295 7.30501 16.2295 8.06632 16.9898L17.2521 26.1633C17.4493 26.3602 17.7675 26.3637 17.969 26.1713L40.0535 5.07611C40.8315 4.33292 42.0645 4.36037 42.8087 5.13744L46.6495 9.14787Z" fill="url(#paint0_linear_38_971)"/>
<g filter="url(#filter0_d_38_971)">
<path d="M108.349 21.7169L118.681 11.3858C120.44 9.62646 120.44 6.78165 118.681 5.02235C116.921 3.30049 114.076 3.30049 112.317 5.02235L101.986 15.3535L91.6548 5.02235C89.8955 3.30049 87.0507 3.30049 85.2914 5.02235C83.5695 6.78165 83.5695 9.62646 85.2914 11.3858L95.6226 21.7169L85.2914 32.0481C83.5695 33.8074 83.5695 36.6522 85.2914 38.4115C87.0507 40.1333 89.8955 40.1333 91.6548 38.4115L101.986 28.0803L112.317 38.4115C114.076 40.1708 116.921 40.1708 118.681 38.4115C120.402 36.6522 120.402 33.8074 118.681 32.0481L108.349 21.7169Z" fill="url(#paint1_linear_38_971)" shape-rendering="crispEdges"/>
</g>
<path d="M169.27 36.1084L169.456 36.1182C169.482 36.1233 169.512 36.1289 169.543 36.1289C169.569 36.1289 169.6 36.1387 169.631 36.1387C169.656 36.1438 169.687 36.1492 169.718 36.1543C169.749 36.1594 169.775 36.1648 169.806 36.1699C169.862 36.1853 169.924 36.1955 169.98 36.2109C170.037 36.2212 170.099 36.2414 170.155 36.2568C170.212 36.2723 170.269 36.2929 170.325 36.3135C170.382 36.334 170.438 36.3603 170.495 36.3809C170.551 36.4014 170.603 36.4265 170.659 36.4521C170.71 36.4778 170.767 36.5095 170.818 36.5352C170.875 36.5609 170.927 36.5912 170.978 36.6221C171.03 36.6529 171.081 36.6889 171.133 36.7197C171.158 36.7351 171.184 36.7561 171.21 36.7715C171.235 36.7869 171.256 36.8079 171.281 36.8232C171.307 36.8437 171.328 36.8584 171.353 36.8789C171.379 36.8995 171.4 36.915 171.426 36.9355C171.451 36.9509 171.476 36.9718 171.497 36.9922C171.518 37.0128 171.544 37.0341 171.564 37.0547C171.585 37.0752 171.61 37.0957 171.631 37.1162C171.656 37.1368 171.678 37.1572 171.698 37.1777C171.719 37.2033 171.739 37.2237 171.76 37.2441C171.78 37.2647 171.801 37.291 171.821 37.3115C171.842 37.332 171.862 37.3574 171.883 37.3779C171.903 37.3985 171.919 37.4248 171.939 37.4453C171.96 37.471 171.975 37.4919 171.996 37.5176C172.016 37.5431 172.037 37.5633 172.053 37.5889L172.156 37.7334C172.192 37.7847 172.223 37.8364 172.254 37.8877C172.285 37.939 172.315 37.9956 172.341 38.0469C172.372 38.0982 172.397 38.1496 172.423 38.2061C172.448 38.2575 172.474 38.3145 172.495 38.3711C172.521 38.4276 172.542 38.4845 172.562 38.541C172.583 38.5974 172.604 38.6536 172.619 38.71C172.634 38.7664 172.65 38.8283 172.665 38.8848C172.68 38.9412 172.696 39.0031 172.706 39.0596C172.711 39.0853 172.716 39.1166 172.722 39.1475C172.727 39.173 172.737 39.2037 172.737 39.2344C172.737 39.2601 172.747 39.2914 172.747 39.3223C172.752 39.348 172.758 39.3793 172.758 39.4102C172.768 39.4407 172.767 39.4714 172.767 39.502C172.773 39.5328 172.773 39.5639 172.773 39.5947H172.778V39.9648C172.773 39.9957 172.773 40.0268 172.773 40.0576C172.768 40.0885 172.763 40.1195 172.763 40.1504C172.757 40.176 172.752 40.2066 172.752 40.2373C172.752 40.263 172.742 40.2943 172.742 40.3252C172.737 40.3508 172.732 40.3814 172.726 40.4121C172.721 40.4378 172.716 40.4691 172.711 40.5C172.695 40.5565 172.685 40.6183 172.67 40.6748C172.66 40.7365 172.639 40.7931 172.624 40.8496C172.608 40.9062 172.588 40.963 172.567 41.0195C172.547 41.0761 172.526 41.1329 172.5 41.1895C172.479 41.2458 172.454 41.2972 172.429 41.3535C172.403 41.4049 172.371 41.4613 172.346 41.5127C172.32 41.5693 172.29 41.6214 172.259 41.6729C172.228 41.7242 172.192 41.7758 172.161 41.8271C172.146 41.8528 172.125 41.8786 172.109 41.9043C172.094 41.9298 172.073 41.95 172.058 41.9756C172.037 42.0012 172.022 42.0223 172.002 42.0479C171.981 42.0735 171.966 42.0996 171.945 42.1201C171.93 42.1406 171.909 42.166 171.889 42.1865C171.868 42.2071 171.848 42.2334 171.827 42.2539C171.806 42.2745 171.785 42.2997 171.765 42.3203C171.744 42.346 171.724 42.3671 171.703 42.3877C171.683 42.4082 171.657 42.4288 171.637 42.4492C171.616 42.4698 171.59 42.4902 171.569 42.5107C171.549 42.5312 171.523 42.5518 171.503 42.5723L171.358 42.6855C171.333 42.706 171.313 42.7268 171.287 42.7422C171.266 42.7576 171.24 42.7785 171.215 42.7939C171.189 42.8093 171.163 42.8293 171.138 42.8447C171.086 42.8807 171.035 42.9116 170.983 42.9424C170.932 42.9732 170.875 43.0046 170.824 43.0303C170.773 43.0611 170.721 43.0866 170.664 43.1123C170.613 43.138 170.556 43.164 170.5 43.1846C170.443 43.2103 170.387 43.2304 170.33 43.251C170.273 43.2715 170.217 43.2922 170.16 43.3076C170.104 43.323 170.042 43.3391 169.985 43.3545C169.929 43.3699 169.867 43.3852 169.81 43.3955C169.785 43.4006 169.754 43.406 169.724 43.4111C169.698 43.4163 169.666 43.4258 169.636 43.4258C169.61 43.4258 169.579 43.4364 169.549 43.4365C169.523 43.4417 169.492 43.4473 169.461 43.4473C169.43 43.4575 169.399 43.457 169.368 43.457C169.337 43.4621 169.306 43.4619 169.275 43.4619H168.905C168.874 43.4568 168.843 43.457 168.812 43.457C168.787 43.4519 168.756 43.4473 168.725 43.4473C168.7 43.4421 168.668 43.4365 168.638 43.4365C168.612 43.4364 168.581 43.4258 168.551 43.4258C168.525 43.4206 168.494 43.4111 168.463 43.4111C168.432 43.406 168.407 43.4006 168.376 43.3955C168.319 43.3801 168.258 43.3699 168.201 43.3545C168.145 43.3442 168.083 43.323 168.026 43.3076C167.97 43.2922 167.913 43.2715 167.856 43.251C167.8 43.2304 167.743 43.2051 167.686 43.1846C167.63 43.164 167.579 43.138 167.522 43.1123C167.471 43.0866 167.414 43.056 167.362 43.0303C167.306 43.0046 167.254 42.9732 167.203 42.9424C167.152 42.9116 167.1 42.8755 167.049 42.8447C167.028 42.8293 167.002 42.8093 166.976 42.7939C166.951 42.7786 166.931 42.7576 166.905 42.7422L166.688 42.5723L166.556 42.4492C166.53 42.4287 166.509 42.4133 166.488 42.3877C166.468 42.362 166.447 42.3409 166.427 42.3203C166.406 42.2998 166.386 42.2744 166.365 42.2539C166.345 42.2334 166.324 42.2071 166.304 42.1865C166.283 42.166 166.267 42.1457 166.247 42.1201L166.134 41.9756C166.118 41.9551 166.097 41.9299 166.082 41.9043C166.061 41.8786 166.046 41.8528 166.03 41.8271C165.994 41.7757 165.963 41.7243 165.933 41.6729C165.902 41.6214 165.876 41.5641 165.846 41.5127C165.815 41.4613 165.789 41.41 165.764 41.3535C165.738 41.3022 165.717 41.2459 165.691 41.1895C165.666 41.1329 165.644 41.0761 165.624 41.0195C165.603 40.963 165.583 40.9062 165.567 40.8496C165.552 40.7931 165.537 40.7313 165.521 40.6748C165.506 40.6183 165.491 40.5566 165.48 40.5C165.475 40.4743 165.47 40.443 165.465 40.4121C165.46 40.3865 165.449 40.3559 165.449 40.3252C165.449 40.2995 165.439 40.2682 165.439 40.2373C165.434 40.2117 165.429 40.1811 165.429 40.1504C165.423 40.1195 165.419 40.0885 165.419 40.0576C165.414 40.0268 165.413 39.9957 165.413 39.9648V39.5947C165.418 39.5639 165.419 39.5328 165.419 39.502C165.424 39.4714 165.429 39.4407 165.429 39.4102C165.434 39.3844 165.439 39.3531 165.439 39.3223C165.439 39.2966 165.449 39.2652 165.449 39.2344C165.454 39.2088 165.46 39.1781 165.465 39.1475C165.47 39.1217 165.475 39.0904 165.48 39.0596C165.496 39.0031 165.506 38.9412 165.521 38.8848C165.537 38.8232 165.552 38.7664 165.567 38.71C165.583 38.6536 165.603 38.5974 165.624 38.541C165.644 38.4845 165.671 38.4276 165.691 38.3711C165.712 38.3145 165.738 38.2626 165.764 38.2061C165.789 38.1547 165.82 38.0982 165.846 38.0469C165.871 37.9904 165.902 37.939 165.933 37.8877C165.963 37.8364 165.999 37.7847 166.03 37.7334L166.134 37.5889C166.154 37.5633 166.17 37.5431 166.19 37.5176C166.211 37.4919 166.226 37.471 166.247 37.4453C166.262 37.4248 166.283 37.3985 166.304 37.3779C166.324 37.3574 166.345 37.332 166.365 37.3115C166.386 37.291 166.406 37.2647 166.427 37.2441C166.447 37.2186 166.463 37.1982 166.488 37.1777C166.514 37.1572 166.535 37.1368 166.556 37.1162C166.576 37.0957 166.601 37.0752 166.622 37.0547C166.643 37.0341 166.668 37.0127 166.688 36.9922L166.833 36.8789C166.858 36.8584 166.88 36.8386 166.905 36.8232C166.926 36.8079 166.951 36.7869 166.976 36.7715C166.997 36.7561 167.023 36.7352 167.049 36.7197C167.1 36.6837 167.152 36.6529 167.203 36.6221C167.254 36.5913 167.311 36.5608 167.362 36.5352C167.414 36.5043 167.466 36.4779 167.522 36.4521C167.574 36.4265 167.63 36.4014 167.686 36.3809C167.743 36.3551 167.8 36.334 167.856 36.3135C167.913 36.2929 167.97 36.2723 168.026 36.2568C168.083 36.2414 168.145 36.2263 168.201 36.2109C168.258 36.1955 168.319 36.1802 168.376 36.1699C168.401 36.1648 168.432 36.1544 168.463 36.1543C168.489 36.1492 168.52 36.1387 168.551 36.1387C168.576 36.1386 168.607 36.129 168.638 36.1289C168.663 36.1238 168.695 36.1182 168.725 36.1182C168.751 36.1131 168.782 36.1133 168.812 36.1133C168.843 36.1082 168.874 36.1084 168.905 36.1084H169.27ZM169.096 0C173.868 1.4522e-05 176.903 2.05742 178.61 3.78027C179.757 4.94249 180.693 6.35703 181.315 7.87402V7.87891C181.902 9.30852 182.205 10.8051 182.189 12.209C182.128 18.0975 178.769 20.8853 176.316 22.9219C175.247 23.8116 174.32 24.5774 173.76 25.4619C172.659 27.2002 172.429 28.5226 172.429 29.3301C172.428 31.171 170.937 32.6621 169.096 32.6621C167.255 32.6621 165.763 31.1711 165.763 29.3301C165.763 26.8719 166.56 24.3723 168.129 21.8936C169.25 20.1193 170.741 18.8793 172.058 17.7891C173.06 16.9559 174.007 16.1739 174.619 15.2842C175.03 14.6927 175.504 13.7976 175.519 12.1367C175.53 11.1493 175.02 9.63794 173.868 8.4707C172.685 7.27757 171.081 6.66993 169.096 6.66992C167.321 6.66992 165.897 7.15365 164.734 8.15137C163.51 9.20557 162.832 10.6251 162.482 11.6279C161.876 13.3661 159.972 14.2814 158.234 13.6748C156.496 13.0679 155.581 11.165 156.187 9.42676C157.077 6.88114 158.532 4.69509 160.389 3.0957C161.525 2.11861 162.811 1.36317 164.21 0.84375C165.712 0.283179 167.357 0 169.096 0Z" fill="url(#paint2_linear_38_971)"/>
<defs>
<filter id="filter0_d_38_971" x="83.3956" y="3.73096" width="38.4178" height="38.4178" filterUnits="userSpaceOnUse" color-interpolation-filters="sRGB">
<feFlood flood-opacity="0" result="BackgroundImageFix"/>
<feColorMatrix in="SourceAlpha" type="matrix" values="0 0 0 0 0 0 0 0 0 0 0 0 0 0 0 0 0 0 127 0" result="hardAlpha"/>
<feOffset dx="0.604445" dy="1.20889"/>
<feGaussianBlur stdDeviation="0.604445"/>
<feComposite in2="hardAlpha" operator="out"/>
<feColorMatrix type="matrix" values="0 0 0 0 0.917647 0 0 0 0 0.898039 0 0 0 0 0.878431 0 0 0 0.4 0"/>
<feBlend mode="normal" in2="BackgroundImageFix" result="effect1_dropShadow_38_971"/>
<feBlend mode="normal" in="SourceGraphic" in2="effect1_dropShadow_38_971" result="shape"/>
</filter>
<linearGradient id="paint0_linear_38_971" x1="41.5" y1="10.731" x2="22.2965" y2="44.6655" gradientUnits="userSpaceOnUse">
<stop stop-color="#C7983E"/>
<stop offset="1" stop-color="#C7983E" stop-opacity="0"/>
</linearGradient>
<linearGradient id="paint1_linear_38_971" x1="106.241" y1="10.031" x2="89.7438" y2="39.2993" gradientUnits="userSpaceOnUse">
<stop stop-color="#002D23"/>
<stop offset="1" stop-color="#002D23" stop-opacity="0"/>
</linearGradient>
<linearGradient id="paint2_linear_38_971" x1="173.5" y1="1" x2="146.612" y2="40.7113" gradientUnits="userSpaceOnUse">
<stop stop-color="#C7983E"/>
<stop offset="1" stop-color="white" stop-opacity="0"/>
</linearGradient>
</defs>
</svg>
