<svg width="294" height="102" viewBox="0 0 294 102" fill="none" xmlns="http://www.w3.org/2000/svg">
<g clip-path="url(#clip0_52_1091)">
<rect width="294" height="102" fill="white"/>
<circle cx="140.445" cy="150" r="127" stroke="#C7983E" stroke-opacity="0.8" stroke-width="2"/>
<path d="M151.945 24C167.754 24 182.379 37.8257 193.111 60.9121C203.804 83.916 210.445 115.766 210.445 151C210.445 186.234 203.804 218.084 193.111 241.088C182.379 264.174 167.754 278 151.945 278C136.136 278 121.51 264.174 110.779 241.088C100.086 218.084 93.4448 186.234 93.4448 151C93.4448 115.766 100.086 83.916 110.779 60.9121C121.51 37.8257 136.136 24 151.945 24Z" stroke="#C7983E" stroke-opacity="0.8" stroke-width="2"/>
<path d="M74.2245 42.7799C85.4033 31.6012 105.521 31.0358 129.434 39.772C153.262 48.477 180.479 66.3024 205.393 91.2168C230.307 116.131 248.133 143.348 256.838 167.175C265.574 191.088 265.008 211.206 253.83 222.385C242.651 233.564 222.533 234.129 198.62 225.393C174.793 216.688 147.576 198.863 122.661 173.948C97.747 149.034 79.9216 121.817 71.2166 97.9895C62.4804 74.0766 63.0458 53.9587 74.2245 42.7799Z" stroke="#C7983E" stroke-opacity="0.8" stroke-width="2"/>
<path d="M16.4446 123.5C16.4446 107.678 29.9523 93.056 52.4856 82.3301C74.9444 71.6397 106.042 65 140.445 65C174.847 65 205.945 71.6397 228.404 82.3301C250.937 93.056 264.445 107.678 264.445 123.5C264.445 139.322 250.937 153.944 228.404 164.67C205.945 175.36 174.847 182 140.445 182C106.042 182 74.9444 175.36 52.4856 164.67C29.9523 153.944 16.4446 139.322 16.4446 123.5Z" stroke="#C7983E" stroke-opacity="0.8" stroke-width="2"/>
<path d="M39.78 223.008C28.5925 211.821 27.8042 191.93 36.1533 168.412C44.4749 144.972 61.769 118.288 86.0955 93.9615C110.422 69.6351 137.106 52.3409 160.546 44.0193C184.064 35.6703 203.955 36.4585 215.142 47.646C226.33 58.8336 227.118 78.7245 218.769 102.242C210.448 125.682 193.153 152.367 168.827 176.693C144.501 201.019 117.816 218.314 94.3764 226.635C70.8585 234.984 50.9676 234.196 39.78 223.008Z" stroke="#2A3B2B" stroke-opacity="0.8" stroke-width="2"/>
<path d="M123.445 272C118.677 272 113.939 268.817 109.465 262.593C105.008 256.392 100.954 247.355 97.5315 236.098C90.6907 213.595 86.4446 182.448 86.4446 148C86.4446 113.552 90.6907 82.4049 97.5315 59.9024C100.954 48.6449 105.008 39.6071 109.465 33.4063C113.939 27.1818 118.677 24 123.445 24C128.212 24 132.95 27.1818 137.424 33.4063C141.881 39.6071 145.935 48.6449 149.358 59.9024C156.198 82.4049 160.445 113.552 160.445 148C160.445 182.448 156.198 213.595 149.358 236.098C145.935 247.355 141.881 256.392 137.424 262.593C132.95 268.817 128.213 272 123.445 272Z" stroke="#2A3B2B" stroke-opacity="0.8" stroke-width="2"/>
<path d="M229.526 233.082C218.641 243.967 199.027 244.506 175.689 235.962C152.437 227.449 125.869 210.034 101.54 185.706C77.2112 161.377 59.7966 134.809 51.2836 111.557C42.7392 88.2189 43.2787 68.6045 54.1638 57.7194C65.049 46.8342 84.6634 46.2947 108.001 54.8391C131.253 63.3521 157.821 80.7667 182.15 105.096C206.479 129.424 223.894 155.992 232.407 179.244C240.951 202.582 240.411 222.197 229.526 233.082Z" stroke="#2A3B2B" stroke-opacity="0.8" stroke-width="2"/>
<path d="M237.986 70.7299C239.242 75.4178 237.911 80.6887 234.169 86.2871C230.427 91.8834 224.342 97.6986 216.33 103.38C200.312 114.738 176.777 125.436 149.521 132.739C122.265 140.042 96.5341 142.546 76.9835 140.718C67.2041 139.803 59.0262 137.81 52.9878 134.834C46.9473 131.857 43.1594 127.958 41.9032 123.27C40.6471 118.582 41.9779 113.311 45.7207 107.713C49.4622 102.117 55.5477 96.3014 63.5598 90.6199C79.5772 79.2615 103.112 68.564 130.368 61.2607C157.624 53.9575 183.355 51.4543 202.906 53.2822C212.685 54.1965 220.863 56.1898 226.902 59.1657C232.942 62.1426 236.73 66.0419 237.986 70.7299Z" stroke="#C7983E" stroke-opacity="0.8" stroke-width="2"/>
</g>
<defs>
<clipPath id="clip0_52_1091">
<rect width="294" height="102" fill="white"/>
</clipPath>
</defs>
</svg>
