<svg width="180" height="39" viewBox="0 0 180 39" fill="none" xmlns="http://www.w3.org/2000/svg">
<path d="M46.6495 5.41692C47.3951 6.19542 47.3676 7.43115 46.5881 8.17572L18.8373 34.6844C18.0714 35.4159 16.8617 35.4025 16.1124 34.6541L1.38154 19.942C0.618825 19.1802 0.618847 17.9442 1.38158 17.1825L5.31045 13.2588C6.07176 12.4986 7.30501 12.4986 8.06632 13.2588L17.2521 22.4324C17.4493 22.6292 17.7675 22.6328 17.969 22.4403L40.0535 1.34516C40.8315 0.601963 42.0645 0.62941 42.8087 1.40649L46.6495 5.41692Z" fill="url(#paint0_linear_38_971)"/>
<g filter="url(#filter0_d_38_971)">
<path d="M108.349 17.986L118.681 7.6548C120.44 5.8955 120.44 3.05069 118.681 1.2914C116.921 -0.430465 114.076 -0.430465 112.317 1.2914L101.986 11.6226L91.6548 1.2914C89.8955 -0.430465 87.0507 -0.430465 85.2914 1.2914C83.5695 3.05069 83.5695 5.8955 85.2914 7.6548L95.6226 17.986L85.2914 28.3171C83.5695 30.0764 83.5695 32.9212 85.2914 34.6805C87.0507 36.4024 89.8955 36.4024 91.6548 34.6805L101.986 24.3494L112.317 34.6805C114.076 36.4398 116.921 36.4398 118.681 34.6805C120.402 32.9212 120.402 30.0764 118.681 28.3171L108.349 17.986Z" fill="url(#paint1_linear_38_971)"/>
</g>
<path d="M161.39 24L161.186 15.8661H163.881C165.136 15.8661 166.288 15.7992 167.339 15.6653C168.39 15.4979 169.305 15.2301 170.085 14.8619C170.864 14.4937 171.475 13.9749 171.915 13.3054C172.356 12.6025 172.576 11.7155 172.576 10.6444C172.576 9.70711 172.39 8.9205 172.017 8.28452C171.644 7.61506 171.102 7.09623 170.39 6.72803C169.712 6.35983 168.898 6.17573 167.949 6.17573C166.966 6.17573 166.119 6.35983 165.407 6.72803C164.695 7.09623 164.153 7.61506 163.78 8.28452C163.407 8.95397 163.22 9.74059 163.22 10.6444H156C156 8.63598 156.458 6.82845 157.373 5.22176C158.322 3.61506 159.695 2.3431 161.492 1.40586C163.322 0.468619 165.525 0 168.102 0C170.407 0 172.458 0.418409 174.254 1.25523C176.051 2.05858 177.458 3.2636 178.475 4.87029C179.492 6.44351 180 8.3682 180 10.6444C180 12.8536 179.492 14.7113 178.475 16.2176C177.492 17.7238 176.119 18.8619 174.356 19.6318C172.627 20.3682 170.627 20.7531 168.356 20.7866L168.153 24H161.39ZM164.847 36C163.458 36 162.339 35.5983 161.492 34.795C160.644 33.9582 160.22 32.954 160.22 31.7824C160.22 30.5774 160.644 29.5732 161.492 28.7699C162.339 27.9331 163.458 27.5146 164.847 27.5146C166.203 27.5146 167.305 27.9331 168.153 28.7699C169 29.5732 169.424 30.5774 169.424 31.7824C169.424 32.954 169 33.9582 168.153 34.795C167.305 35.5983 166.203 36 164.847 36Z" fill="url(#paint2_linear_38_971)"/>
<defs>
<filter id="filter0_d_38_971" x="83.3956" y="0" width="38.4178" height="38.4178" filterUnits="userSpaceOnUse" color-interpolation-filters="sRGB">
<feFlood flood-opacity="0" result="BackgroundImageFix"/>
<feColorMatrix in="SourceAlpha" type="matrix" values="0 0 0 0 0 0 0 0 0 0 0 0 0 0 0 0 0 0 127 0" result="hardAlpha"/>
<feOffset dx="0.604445" dy="1.20889"/>
<feGaussianBlur stdDeviation="0.604445"/>
<feComposite in2="hardAlpha" operator="out"/>
<feColorMatrix type="matrix" values="0 0 0 0 0.917647 0 0 0 0 0.898039 0 0 0 0 0.878431 0 0 0 0.4 0"/>
<feBlend mode="normal" in2="BackgroundImageFix" result="effect1_dropShadow_38_971"/>
<feBlend mode="normal" in="SourceGraphic" in2="effect1_dropShadow_38_971" result="shape"/>
</filter>
<linearGradient id="paint0_linear_38_971" x1="41.5" y1="7" x2="22.2965" y2="40.9345" gradientUnits="userSpaceOnUse">
<stop stop-color="#C7983E"/>
<stop offset="1" stop-color="white"/>
</linearGradient>
<linearGradient id="paint1_linear_38_971" x1="106.241" y1="6.3" x2="89.7438" y2="35.5683" gradientUnits="userSpaceOnUse">
<stop stop-color="#002D23"/>
<stop offset="1" stop-color="white"/>
</linearGradient>
<linearGradient id="paint2_linear_38_971" x1="178.893" y1="6.42505" x2="150.939" y2="24.6565" gradientUnits="userSpaceOnUse">
<stop stop-color="#C7983E"/>
<stop offset="1" stop-color="white"/>
</linearGradient>
</defs>
</svg>
