<svg width="97" height="40" viewBox="0 0 97 40" fill="none" xmlns="http://www.w3.org/2000/svg">
<g clip-path="url(#clip0_2_70)">
<g filter="url(#filter0_d_2_70)">
<path fill-rule="evenodd" clip-rule="evenodd" d="M32.9359 22.2266C31.7349 28.9921 26.2219 34.972 16.5512 40C7.51519 35.2902 2.06582 29.5901 0.354227 23.0565C-0.159069 21.1005 0.0167612 11.0815 0.0845291 7.25008L16.6428 0L33.1901 7.24367C33.3123 12.8674 33.3943 19.6383 32.9355 22.2262L32.9359 22.2266Z" fill="url(#paint0_linear_2_70)"/>
</g>
<path d="M8.60306 24.4171C4.4153 23.2197 3.70946 17.7738 3.88002 15.2006C4.70655 15.9227 7.25699 17.6977 10.8465 19.0211C14.436 20.3445 15.5695 23.3011 15.6876 24.614V30.2857C14.2077 26.7251 10.348 24.8897 8.60306 24.4171Z" fill="white"/>
<path d="M15.7958 21.6213V25.0211C16.0717 20.6826 19.2541 18.6267 21.6965 17.8596C22.7012 17.544 23.7698 17.3827 24.6664 16.8303C27.5713 15.0405 29.1253 11.574 29.5714 9.85718C28.4524 11.6269 25.331 12.4777 22.9487 12.8139C21.7345 12.9853 20.4572 13.0417 19.4238 13.7019C16.6322 15.4855 15.8259 19.5301 15.7958 21.6213Z" fill="#C7983E"/>
</g>
<path d="M84.2216 17V3H89.0816C90.7083 3 92.0483 3.29333 93.1016 3.88C94.1683 4.45333 94.955 5.26667 95.4616 6.32C95.9816 7.36 96.2416 8.58667 96.2416 10C96.2416 11.4 95.9816 12.6267 95.4616 13.68C94.955 14.72 94.1683 15.5333 93.1016 16.12C92.0483 16.7067 90.7083 17 89.0816 17H84.2216ZM87.2216 14.42H88.9016C89.9816 14.42 90.835 14.2467 91.4616 13.9C92.0883 13.54 92.5283 13.0333 92.7816 12.38C93.0483 11.7133 93.1816 10.92 93.1816 10C93.1816 9.06667 93.0483 8.27333 92.7816 7.62C92.5283 6.95333 92.0883 6.44667 91.4616 6.1C90.835 5.74 89.9816 5.56 88.9016 5.56H87.2216V14.42Z" fill="#2A3B2B"/>
<path d="M72.8544 17V3H75.8544V14.68H81.8944V17H72.8544Z" fill="#2A3B2B"/>
<path d="M61.0966 17V3H70.4766V5.42H64.0966V8.72H69.8766V11.04H64.0966V14.58H70.4766V17H61.0966Z" fill="#2A3B2B"/>
<path d="M55.413 17V3H58.413V17H55.413Z" fill="#2A3B2B"/>
<path d="M46.0657 17V12.2L41.2857 3H44.6857L47.8657 9.72H47.3057L50.4657 3H53.8257L49.0657 12.2V17H46.0657Z" fill="#2A3B2B"/>
<path d="M46.9693 37.0001V23.0001H52.4093C53.556 23.0001 54.5026 23.1935 55.2493 23.5801C56.0093 23.9668 56.576 24.5001 56.9493 25.1801C57.3226 25.8468 57.5093 26.6001 57.5093 27.4401C57.5093 28.2268 57.3293 28.9535 56.9693 29.6201C56.6093 30.2868 56.056 30.8268 55.3093 31.2401C54.5626 31.6535 53.596 31.8601 52.4093 31.8601H49.9693V37.0001H46.9693ZM49.9693 29.4601H52.2093C52.996 29.4601 53.5626 29.2801 53.9093 28.9201C54.2693 28.5468 54.4493 28.0535 54.4493 27.4401C54.4493 26.8135 54.2693 26.3268 53.9093 25.9801C53.5626 25.6201 52.996 25.4401 52.2093 25.4401H49.9693V29.4601Z" fill="#C7983E"/>
<path d="M41.2857 37.0001V23.0001H44.2857V37.0001H41.2857Z" fill="#C7983E"/>
<defs>
<filter id="filter0_d_2_70" x="-0.453333" y="0" width="35.099" height="41.8133" filterUnits="userSpaceOnUse" color-interpolation-filters="sRGB">
<feFlood flood-opacity="0" result="BackgroundImageFix"/>
<feColorMatrix in="SourceAlpha" type="matrix" values="0 0 0 0 0 0 0 0 0 0 0 0 0 0 0 0 0 0 127 0" result="hardAlpha"/>
<feOffset dx="0.453333" dy="0.906667"/>
<feGaussianBlur stdDeviation="0.453333"/>
<feComposite in2="hardAlpha" operator="out"/>
<feColorMatrix type="matrix" values="0 0 0 0 0.917647 0 0 0 0 0.898039 0 0 0 0 0.878431 0 0 0 0.4 0"/>
<feBlend mode="normal" in2="BackgroundImageFix" result="effect1_dropShadow_2_70"/>
<feBlend mode="normal" in="SourceGraphic" in2="effect1_dropShadow_2_70" result="shape"/>
</filter>
<linearGradient id="paint0_linear_2_70" x1="20.5642" y1="7" x2="0.666897" y2="36.3749" gradientUnits="userSpaceOnUse">
<stop stop-color="#002D23"/>
<stop offset="1" stop-color="white"/>
</linearGradient>
<clipPath id="clip0_2_70">
<rect width="33.2857" height="40" fill="white"/>
</clipPath>
</defs>
</svg>
