<svg width="97" height="40" viewBox="0 0 97 40" fill="none" xmlns="http://www.w3.org/2000/svg">
<g clip-path="url(#clip0_60_1158)">
<g filter="url(#filter0_d_60_1158)">
<path fill-rule="evenodd" clip-rule="evenodd" d="M32.9359 22.2266C31.7349 28.9921 26.2219 34.972 16.5512 40C7.51519 35.2902 2.06582 29.5901 0.354227 23.0565C-0.159069 21.1005 0.0167612 11.0815 0.0845291 7.25008L16.6428 0L33.1901 7.24367C33.3123 12.8674 33.3943 19.6383 32.9355 22.2262L32.9359 22.2266Z" fill="url(#paint0_linear_60_1158)" shape-rendering="crispEdges"/>
</g>
<path d="M8.60312 24.4171C4.41536 23.2197 3.70952 17.7738 3.88008 15.2006C4.70661 15.9227 7.25705 17.6977 10.8466 19.0211C14.4361 20.3445 15.5696 23.3011 15.6877 24.614V30.2857C14.2078 26.7251 10.348 24.8897 8.60312 24.4171Z" fill="white"/>
<path d="M15.7959 21.6213V25.0211C16.0718 20.6826 19.2542 18.6267 21.6965 17.8596C22.7012 17.544 23.7698 17.3827 24.6664 16.8303C27.5714 15.0405 29.1253 11.574 29.5714 9.85718C28.4525 11.6269 25.331 12.4777 22.9487 12.8139C21.7345 12.9853 20.4573 13.0417 19.4239 13.7019C16.6323 15.4855 15.826 19.5301 15.7959 21.6213Z" fill="#C7983E"/>
</g>
<path d="M84.2217 17V3H89.0817C90.7083 3 92.0483 3.29333 93.1017 3.88C94.1683 4.45333 94.955 5.26667 95.4617 6.32C95.9817 7.36 96.2417 8.58667 96.2417 10C96.2417 11.4 95.9817 12.6267 95.4617 13.68C94.955 14.72 94.1683 15.5333 93.1017 16.12C92.0483 16.7067 90.7083 17 89.0817 17H84.2217ZM87.2217 14.42H88.9017C89.9817 14.42 90.835 14.2467 91.4617 13.9C92.0883 13.54 92.5283 13.0333 92.7817 12.38C93.0483 11.7133 93.1817 10.92 93.1817 10C93.1817 9.06667 93.0483 8.27333 92.7817 7.62C92.5283 6.95333 92.0883 6.44667 91.4617 6.1C90.835 5.74 89.9817 5.56 88.9017 5.56H87.2217V14.42Z" fill="white"/>
<path d="M72.8545 17V3H75.8545V14.68H81.8945V17H72.8545Z" fill="white"/>
<path d="M61.0967 17V3H70.4767V5.42H64.0967V8.72H69.8767V11.04H64.0967V14.58H70.4767V17H61.0967Z" fill="white"/>
<path d="M55.4131 17V3H58.4131V17H55.4131Z" fill="white"/>
<path d="M46.0656 17V12.2L41.2856 3H44.6856L47.8656 9.72H47.3056L50.4656 3H53.8256L49.0656 12.2V17H46.0656Z" fill="white"/>
<path d="M46.9692 37.0001V23.0001H52.4092C53.5559 23.0001 54.5026 23.1935 55.2492 23.5801C56.0092 23.9668 56.5759 24.5001 56.9492 25.1801C57.3226 25.8468 57.5092 26.6001 57.5092 27.4401C57.5092 28.2268 57.3292 28.9535 56.9692 29.6201C56.6092 30.2868 56.0559 30.8268 55.3092 31.2401C54.5626 31.6535 53.5959 31.8601 52.4092 31.8601H49.9692V37.0001H46.9692ZM49.9692 29.4601H52.2092C52.9959 29.4601 53.5626 29.2801 53.9092 28.9201C54.2692 28.5468 54.4492 28.0535 54.4492 27.4401C54.4492 26.8135 54.2692 26.3268 53.9092 25.9801C53.5626 25.6201 52.9959 25.4401 52.2092 25.4401H49.9692V29.4601Z" fill="#C7983E"/>
<path d="M41.2856 37.0001V23.0001H44.2856V37.0001H41.2856Z" fill="#C7983E"/>
<defs>
<filter id="filter0_d_60_1158" x="-0.453333" y="0" width="35.099" height="41.8133" filterUnits="userSpaceOnUse" color-interpolation-filters="sRGB">
<feFlood flood-opacity="0" result="BackgroundImageFix"/>
<feColorMatrix in="SourceAlpha" type="matrix" values="0 0 0 0 0 0 0 0 0 0 0 0 0 0 0 0 0 0 127 0" result="hardAlpha"/>
<feOffset dx="0.453333" dy="0.906667"/>
<feGaussianBlur stdDeviation="0.453333"/>
<feComposite in2="hardAlpha" operator="out"/>
<feColorMatrix type="matrix" values="0 0 0 0 0.917647 0 0 0 0 0.898039 0 0 0 0 0.878431 0 0 0 0.4 0"/>
<feBlend mode="normal" in2="BackgroundImageFix" result="effect1_dropShadow_60_1158"/>
<feBlend mode="normal" in="SourceGraphic" in2="effect1_dropShadow_60_1158" result="shape"/>
</filter>
<linearGradient id="paint0_linear_60_1158" x1="20.5642" y1="7" x2="0.666897" y2="36.3749" gradientUnits="userSpaceOnUse">
<stop stop-color="#002D23"/>
<stop offset="1" stop-color="#002D23" stop-opacity="0"/>
</linearGradient>
<clipPath id="clip0_60_1158">
<rect width="33.2857" height="40" fill="white"/>
</clipPath>
</defs>
</svg>
